<?xml version="1.0" encoding="utf-8"?>
<!-- Generator: Adobe Illustrator 21.0.2, SVG Export Plug-In . SVG Version: 6.00 Build 0)  -->
<svg version="1.1" id="Layer_1" xmlns="http://www.w3.org/2000/svg" xmlns:xlink="http://www.w3.org/1999/xlink" x="0px" y="0px"
	 viewBox="0 0 10 10" style="enable-background:new 0 0 10 10;" xml:space="preserve">
<style type="text/css">
	.st0{fill:#CFCFCF;}
</style>
<path class="st0" d="M2.5,2.5h5v5h-5V2.5z M6.9,0v1.3H5.6V0H4.4v1.3H3.1V0H1.9v1.3H1.3v0.6H0v1.3h1.3v1.3H0v1.3h1.3v1.3H0v1.3h1.3
	v0.6h0.6V10h1.3V8.8h1.3V10h1.3V8.8h1.3V10h1.3V8.8h0.6V8.1H10V6.9H8.8V5.6H10V4.4H8.8V3.1H10V1.9H8.8V1.3H8.1V0H6.9z"/>
</svg>
