<?xml version="1.0" encoding="utf-8"?>
<!-- Generator: Adobe Illustrator 21.0.2, SVG Export Plug-In . SVG Version: 6.00 Build 0)  -->
<svg version="1.1" id="Layer_1" xmlns="http://www.w3.org/2000/svg" xmlns:xlink="http://www.w3.org/1999/xlink" x="0px" y="0px"
	 viewBox="0 0 10 10" style="enable-background:new 0 0 10 10;" xml:space="preserve">
<style type="text/css">
	.st0{clip-path:url(#SVGID_2_);fill:#CFCFCF;}
</style>
<g>
	<defs>
		<rect id="SVGID_1_" width="10" height="10"/>
	</defs>
	<clipPath id="SVGID_2_">
		<use xlink:href="#SVGID_1_"  style="overflow:visible;"/>
	</clipPath>
	<path class="st0" d="M5.5,6.3C5.5,6,5.3,5.8,5,5.8S4.5,6,4.5,6.3S4.7,6.8,5,6.8S5.5,6.5,5.5,6.3 M7.5,6.3c0,1.4-1.1,2.5-2.5,2.5
		S2.5,7.6,2.5,6.3S3.6,3.8,5,3.8S7.5,4.9,7.5,6.3 M7.5,2.3c0,0.3-0.3,0.3-0.3,0.3H2.8c-0.3,0-0.3-0.3-0.3-0.3V1.5
		c0-0.3,0.3-0.3,0.3-0.3h4.5c0.3,0,0.3,0.3,0.3,0.3V2.3z M8.8,9.3V0.8c0,0,0-0.8-0.8-0.8H2c0,0-0.8,0-0.8,0.8v8.5c0,0,0,0.8,0.8,0.8
		h6C8,10,8.8,10,8.8,9.3"/>
</g>
</svg>
