<?xml version="1.0" encoding="utf-8"?>
<!-- Generator: Adobe Illustrator 21.0.2, SVG Export Plug-In . SVG Version: 6.00 Build 0)  -->
<svg version="1.1" id="Layer_1" xmlns="http://www.w3.org/2000/svg" xmlns:xlink="http://www.w3.org/1999/xlink" x="0px" y="0px"
	 viewBox="0 0 10 10" style="enable-background:new 0 0 10 10;" xml:space="preserve">
<style type="text/css">
	.st0{clip-path:url(#SVGID_2_);fill:#CFCFCF;}
</style>
<g>
	<defs>
		<rect id="SVGID_1_" width="10" height="10"/>
	</defs>
	<clipPath id="SVGID_2_">
		<use xlink:href="#SVGID_1_"  style="overflow:visible;"/>
	</clipPath>
	<path class="st0" d="M9.2,2.8c0,0.3-0.3,0.3-0.3,0.3H8c-0.3,0-0.3-0.3-0.3-0.3V1.1C7.7,0.8,8,0.8,8,0.8h0.9c0.3,0,0.3,0.3,0.3,0.3
		V2.8z M6.9,2.8c0,0.3-0.3,0.3-0.3,0.3H5.7c-0.3,0-0.3-0.3-0.3-0.3V1.1c0-0.3,0.3-0.3,0.3-0.3h0.9c0.3,0,0.3,0.3,0.3,0.3V2.8z
		 M4.6,2.8c0,0.3-0.3,0.3-0.3,0.3H3.4c-0.3,0-0.3-0.3-0.3-0.3V1.1c0-0.3,0.3-0.3,0.3-0.3h0.9c0.3,0,0.3,0.3,0.3,0.3V2.8z M2.3,2.8
		C2.3,3.1,2,3.1,2,3.1H1.1c-0.3,0-0.3-0.3-0.3-0.3V1.1c0-0.3,0.3-0.3,0.3-0.3H2c0.3,0,0.3,0.3,0.3,0.3V2.8z M9.2,3.8H10V0.4
		C10,0.2,9.8,0,9.6,0H0.4C0.2,0,0,0.2,0,0.4v3.5h0.8v0.8h2.3V4.2c0-0.2,0.2-0.4,0.4-0.4c0.2,0,0.4,0.2,0.4,0.4v0.4h5.4V3.8z
		 M9.2,8.2c0,0.3-0.3,0.3-0.3,0.3H8c-0.3,0-0.3-0.3-0.3-0.3V6.5C7.7,6.2,8,6.2,8,6.2h0.9c0.3,0,0.3,0.3,0.3,0.3V8.2z M6.9,8.2
		c0,0.3-0.3,0.3-0.3,0.3H5.7c-0.3,0-0.3-0.3-0.3-0.3V6.5c0-0.3,0.3-0.3,0.3-0.3h0.9c0.3,0,0.3,0.3,0.3,0.3V8.2z M4.6,8.2
		c0,0.3-0.3,0.3-0.3,0.3H3.4c-0.3,0-0.3-0.3-0.3-0.3V6.5c0-0.3,0.3-0.3,0.3-0.3h0.9c0.3,0,0.3,0.3,0.3,0.3V8.2z M2.3,8.2
		C2.3,8.5,2,8.5,2,8.5H1.1c-0.3,0-0.3-0.3-0.3-0.3V6.5c0-0.3,0.3-0.3,0.3-0.3H2c0.3,0,0.3,0.3,0.3,0.3V8.2z M10,9.2V5.8
		c0-0.2-0.2-0.4-0.4-0.4H0.4C0.2,5.4,0,5.6,0,5.8v3.5h0.8V10h2.3V9.6c0-0.2,0.2-0.4,0.4-0.4c0.2,0,0.4,0.2,0.4,0.4V10h5.4V9.2H10z"
		/>
</g>
</svg>
