<?xml version="1.0" encoding="utf-8"?>
<!-- Generator: Adobe Illustrator 21.0.2, SVG Export Plug-In . SVG Version: 6.00 Build 0)  -->
<svg version="1.1" id="Layer_1" xmlns="http://www.w3.org/2000/svg" xmlns:xlink="http://www.w3.org/1999/xlink" x="0px" y="0px"
	 viewBox="0 0 60 60" style="enable-background:new 0 0 60 60;" xml:space="preserve">
<style type="text/css">
	.st0{clip-path:url(#SVGID_2_);fill:#2773B9;}
	.st1{fill:#FFFFFF;}
</style>
<g>
	<defs>
		<rect id="SVGID_1_" width="60" height="60"/>
	</defs>
	<clipPath id="SVGID_2_">
		<use xlink:href="#SVGID_1_"  style="overflow:visible;"/>
	</clipPath>
	<path class="st0" d="M3,0c0,0-3,0-3,3v54c0,0,0,3,3,3h54c0,0,3,0,3-3V3c0,0,0-3-3-3H3z"/>
</g>
<path class="st1" d="M27.1,30.8H13.3V42l13.8,1.9V30.8z M27.1,29.2V16.1L13.3,18v11.3H27.1z M28.6,29.2h18.1V13.3l-18.1,2.5V29.2z
	 M46.7,46.7V30.8H28.6v13.4L46.7,46.7z"/>
</svg>
