<?xml version="1.0" encoding="utf-8"?>
<!-- Generator: Adobe Illustrator 22.0.1, SVG Export Plug-In . SVG Version: 6.00 Build 0)  -->
<svg version="1.1" id="Layer_1" xmlns="http://www.w3.org/2000/svg" xmlns:xlink="http://www.w3.org/1999/xlink" x="0px" y="0px"
	 viewBox="0 0 130 22.4" style="enable-background:new 0 0 130 22.4;" xml:space="preserve">
<style type="text/css">
	.st0{fill:#FFFFFF;}
	.st1{clip-path:url(#SVGID_2_);fill:#FFFFFF;}
</style>
<polygon class="st0" points="0,22.4 16.4,22.4 11.8,19.6 2.8,19.6 2.8,10.7 21.7,22.4 22.4,22.4 22.4,19.8 0,5.8 "/>
<polygon class="st0" points="6,0 10.5,2.8 19.6,2.8 19.6,11.6 0.6,0 0,0 0,2.6 22.4,16.6 22.4,0 "/>
<g>
	<defs>
		<rect id="SVGID_1_" width="130" height="22.4"/>
	</defs>
	<clipPath id="SVGID_2_">
		<use xlink:href="#SVGID_1_"  style="overflow:visible;"/>
	</clipPath>
	<path class="st1" d="M129.8,2.8V0.1h-18.1v3.3h13.1l-13.5,16.1v2.7H130v-3.3h-13.6L129.8,2.8z M92.3,3.4h5.3c4.4,0,7.7,3.2,7.7,7.7
		c0,4.5-3.3,7.7-7.6,7.7h-5.4V3.4z M88.6,0.1v22.1h9c6.7,0,11.5-4.7,11.5-11.1c0-6.4-4.8-11.1-11.4-11.1H88.6z M82.8,0.1h-3.7v22.1
		h3.7V0.1z M60,12.2V3.4h5.2c3.4,0,5.4,1.4,5.4,4.3c0,3-2,4.5-5.4,4.5H60z M70.3,22.2h4.2l-5-7.4c2.9-1.1,4.6-3.6,4.6-7.2
		c0-4.8-3.3-7.5-8.9-7.5h-9v22.1H60v-6.7h5.2c0.3,0,0.7,0,1,0L70.3,22.2z M47.7,11.3v6.2c-1.6,0.9-3.4,1.5-5.1,1.5
		c-4.5,0-8.1-3.4-8.1-7.9c0-4.4,3.5-7.8,8.1-7.8c2.3,0,4.7,0.9,6.4,2.5l2.1-2.7C48.9,1.2,45.7,0,42.6,0c-6.7,0-11.8,4.8-11.8,11.1
		c0,6.3,5.1,11.2,11.6,11.2c3,0,6.3-1.2,8.6-2.9v-8.1H47.7z"/>
</g>
</svg>
